{"accessors" : [{"bufferView" : 0, "byteOffset" : 0, "componentType" : 5123, "count" : 155130, "type" : "SCALAR", "max" : [65277], "min" : [0]}, {"bufferView" : 1, "byteOffset" : 0, "componentType" : 5126, "count" : 65278, "type" : "VEC3", "max" : [206807.625, 72446.4140625, 116476.5625], "min" : [-212432.734375, -86210.4140625, -16125.001953125]}, {"bufferView" : 1, "byteOffset" : 12, "componentType" : 5126, "count" : 65278, "type" : "VEC3", "max" : [1, 1, 0.999999642372131], "min" : [-1, -1, -0.999999523162842]}], "asset" : {"generator" : "Aspose.3D 19.11", "version" : "2.0"}, "buffers" : [{"uri" : "buffer.bin", "byteLength" : 1876940}], "bufferViews" : [{"buffer" : 0, "byteOffset" : 0, "byteLength" : 310260, "target" : 34963}, {"buffer" : 0, "byteOffset" : 310264, "byteLength" : 1566672, "byteStride" : 24, "target" : 34962}], "meshes" : [{"primitives" : [{"attributes" : {"POSITION" : 1, "NORMAL" : 2}, "indices" : 0, "mode" : 4}]}], "nodes" : [{"mesh" : 0, "name" : ""}], "scene" : 0, "scenes" : [{"nodes" : [0]}]}